<?xml version="1.0" standalone="no"?>
<!DOCTYPE svg PUBLIC "-//W3C//DTD SVG 20010904//EN"
 "http://www.w3.org/TR/2001/REC-SVG-20010904/DTD/svg10.dtd">
<svg version="1.0" xmlns="http://www.w3.org/2000/svg"
 width="1105.000000pt" height="694.000000pt" viewBox="0 0 1105.000000 694.000000"
 preserveAspectRatio="xMidYMid meet">

<g transform="translate(0.000000,694.000000) scale(0.100000,-0.100000)"
fill="#000000" stroke="none">
<path d="M2830 2195 c0 -258 1 -265 20 -265 19 0 20 7 20 128 0 108 3 132 20
159 34 57 111 80 157 48 32 -23 43 -75 43 -212 0 -119 1 -123 21 -123 21 0 21
2 17 148 -3 90 -10 157 -18 174 -14 30 -64 58 -104 58 -34 0 -87 -22 -105 -43
-7 -10 -17 -17 -22 -17 -5 0 -9 47 -9 105 0 98 -1 105 -20 105 -19 0 -20 -7
-20 -265z"/>
<path d="M2475 2426 c-93 -42 -140 -169 -116 -315 18 -108 75 -172 166 -186
84 -12 172 32 201 102 19 44 18 53 -6 53 -11 0 -20 -5 -20 -11 0 -34 -36 -83
-74 -100 -54 -24 -90 -24 -143 2 -69 33 -88 79 -88 209 0 87 4 112 21 144 32
62 65 81 139 81 77 0 113 -22 135 -83 10 -29 20 -42 33 -42 16 0 18 5 12 28
-11 46 -48 91 -91 112 -47 23 -124 26 -169 6z"/>
<path d="M4970 2435 c0 -3 43 -78 95 -167 l95 -162 0 -88 c0 -72 3 -88 15 -88
12 0 15 17 15 93 l0 92 95 160 c52 88 90 162 84 163 -22 8 -39 -13 -113 -142
-43 -75 -81 -136 -85 -136 -3 1 -41 64 -84 140 -58 104 -84 140 -98 140 -10 0
-19 -2 -19 -5z"/>
<path d="M6690 2185 l0 -255 40 0 40 0 0 255 0 255 -40 0 -40 0 0 -255z"/>
<path d="M3335 2298 c-120 -42 -157 -229 -63 -325 76 -78 217 -60 264 35 29
56 26 175 -4 224 -39 63 -124 92 -197 66z m115 -33 c100 -52 100 -248 0 -300
-61 -31 -139 -6 -172 56 -23 43 -24 138 -1 186 30 65 109 91 173 58z"/>
<path d="M3747 2296 c-49 -18 -62 -30 -86 -80 -39 -79 -24 -194 32 -250 59
-59 180 -54 236 10 91 103 51 291 -68 324 -47 13 -68 12 -114 -4z m134 -43
c41 -34 59 -79 59 -143 0 -164 -185 -221 -250 -77 -69 151 75 317 191 220z"/>
<path d="M4143 2299 c-39 -11 -73 -53 -73 -90 0 -44 37 -75 116 -98 106 -31
138 -63 118 -116 -9 -22 -57 -45 -94 -45 -49 0 -98 25 -106 54 -8 32 -44 36
-44 6 0 -51 96 -98 173 -86 75 12 117 50 117 107 0 35 -52 76 -126 98 -92 29
-114 44 -114 81 0 62 99 93 160 50 16 -11 32 -29 35 -40 9 -28 35 -25 35 3 0
62 -105 102 -197 76z"/>
<path d="M4524 2291 c-23 -10 -51 -32 -63 -49 -45 -64 -45 -190 0 -253 51 -73
169 -86 244 -28 40 32 11 43 -33 13 -85 -58 -195 -3 -209 106 l-6 40 143 0
143 0 -7 46 c-8 63 -33 101 -81 124 -51 25 -78 25 -131 1z m117 -27 c17 -8 37
-30 45 -49 27 -65 27 -65 -105 -65 l-120 0 9 30 c25 86 98 122 171 84z"/>
<path d="M5514 2291 c-23 -10 -52 -34 -65 -52 -21 -30 -24 -45 -24 -124 0 -78
3 -94 23 -123 32 -44 77 -66 137 -66 91 0 147 49 165 143 11 61 0 133 -27 170
-24 33 -98 71 -138 71 -16 0 -48 -9 -71 -19z m156 -46 c50 -48 63 -149 29
-221 -18 -37 -74 -74 -113 -74 -37 0 -89 30 -111 63 -22 35 -30 117 -15 163
14 43 44 81 75 95 37 16 104 3 135 -26z"/>
<path d="M6360 2303 c-8 -3 -27 -17 -42 -31 l-28 -26 0 27 c0 20 -5 27 -20 27
-19 0 -20 -7 -20 -185 0 -176 1 -185 19 -185 18 0 20 10 23 146 3 144 3 146
30 169 15 13 45 26 68 30 24 4 39 12 37 18 -4 13 -44 19 -67 10z"/>
<path d="M7013 2291 c-35 -16 -43 -17 -43 -6 0 11 -12 15 -40 15 l-40 0 0
-185 0 -185 40 0 40 0 0 138 c0 159 6 172 77 172 67 0 73 -15 73 -173 l0 -137
40 0 40 0 0 129 c0 115 2 131 21 155 16 21 29 26 64 26 34 0 47 -5 55 -19 5
-11 10 -81 10 -155 l0 -136 45 0 45 0 0 118 c-1 64 -5 137 -9 161 -18 92 -102
125 -196 77 l-49 -25 -23 20 c-31 30 -98 34 -150 10z"/>
<path d="M7611 2297 c-36 -14 -81 -59 -81 -83 0 -25 66 -18 94 11 34 34 78 33
105 -1 38 -48 29 -61 -46 -69 -77 -8 -127 -28 -148 -59 -22 -30 -19 -98 6
-129 37 -48 129 -57 186 -20 20 14 23 13 29 -1 4 -11 18 -16 43 -16 l36 0 -4
142 c-3 153 -12 185 -55 214 -33 21 -123 27 -165 11z m139 -227 c0 -62 -34
-88 -105 -80 -63 7 -60 89 5 113 8 3 34 6 58 6 l42 1 0 -40z"/>
<path d="M8014 2296 c-66 -29 -101 -110 -90 -209 10 -98 50 -149 127 -162 29
-5 50 -2 79 13 45 22 53 18 44 -27 -14 -67 -95 -91 -163 -50 -33 20 -35 20
-48 3 -17 -23 -13 -33 20 -58 42 -31 144 -35 195 -6 72 40 77 58 80 293 l3
207 -40 0 c-30 0 -41 -4 -41 -15 0 -12 -6 -12 -37 5 -43 23 -85 25 -129 6z
m154 -83 c7 -10 12 -49 12 -100 0 -104 -15 -126 -87 -121 -65 4 -88 37 -88
123 0 98 45 144 120 123 17 -4 36 -16 43 -25z"/>
<path d="M8455 2298 c-40 -14 -84 -56 -101 -95 -8 -18 -14 -61 -14 -95 0 -98
44 -157 133 -178 60 -15 135 1 168 36 22 23 22 24 4 44 -17 18 -20 19 -35 5
-27 -24 -76 -35 -113 -24 -40 11 -63 33 -72 72 l-7 27 126 0 126 0 0 48 c-1
73 -31 129 -82 152 -47 22 -87 24 -133 8z m85 -58 c17 0 50 -44 50 -67 0 -22
-3 -23 -85 -23 -47 0 -85 2 -85 4 0 1 5 18 11 36 12 33 61 64 87 55 8 -3 18
-5 22 -5z"/>
<path d="M5840 2163 c0 -159 12 -196 70 -226 43 -22 112 -16 152 13 34 25 38
25 38 0 0 -11 7 -20 15 -20 13 0 15 27 15 185 0 178 -1 185 -20 185 -19 0 -20
-7 -20 -143 0 -160 -6 -177 -66 -197 -44 -15 -96 -6 -120 21 -16 18 -19 41
-22 170 -3 139 -5 149 -23 149 -18 0 -19 -8 -19 -137z"/>
</g>
</svg>
